<?xml version="1.0" encoding="UTF-8" standalone="no"?><!DOCTYPE svg PUBLIC "-//W3C//DTD SVG 1.1//EN" "http://www.w3.org/Graphics/SVG/1.1/DTD/svg11.dtd"><svg width="100%" height="100%" viewBox="0 0 968 505" version="1.1" xmlns="http://www.w3.org/2000/svg" xmlns:xlink="http://www.w3.org/1999/xlink" xml:space="preserve" xmlns:serif="http://www.serif.com/" style="fill-rule:evenodd;clip-rule:evenodd;stroke-linejoin:round;stroke-miterlimit:1.41421;"><path d="M545.691,504.186c70.196,-83.009 173.541,-131.2 282.735,-131.2l139.556,0c0,-97.355 -78.971,-176.186 -176.187,-176.186l-232.733,0l-236.076,307.386l222.844,0l-0.139,0Z" style="fill:url(#_Linear1);fill-rule:nonzero;"/><path d="M322.986,416.58l-67.411,0l67.411,87.606l67.271,-87.606l-67.271,0Z" style="fill:url(#_Linear2);fill-rule:nonzero;"/><path d="M322.986,416.58l-67.411,0l67.411,87.606l67.271,-87.606l-67.271,0Z" style="fill:url(#_Linear3);fill-rule:nonzero;"/><path d="M624.662,0l-154.738,0c-57.383,0 -111.562,26.741 -146.381,72.425l-323.543,431.901c19.777,-17.41 362.819,-316.719 655.582,-317.972c0,0 0.139,0 0.278,0c-21.727,-27.159 -27.02,-63.232 -27.02,-63.232c131.896,-23.399 172.009,53.204 172.009,53.204c0,-97.355 -78.971,-176.187 -176.187,-176.187l0,-0.139Z" style="fill:url(#_Linear4);fill-rule:nonzero;"/><defs><linearGradient id="_Linear1" x1="0" y1="0" x2="1" y2="0" gradientUnits="userSpaceOnUse" gradientTransform="matrix(180.086,309.476,-309.476,180.086,528.839,214.349)"><stop offset="0" style="stop-color:#9b59ee;stop-opacity:1"/><stop offset="1" style="stop-color:#2563eb;stop-opacity:1"/></linearGradient><linearGradient id="_Linear2" x1="0" y1="0" x2="1" y2="0" gradientUnits="userSpaceOnUse" gradientTransform="matrix(55.1541,94.709,-94.709,55.1541,305.854,387.332)"><stop offset="0" style="stop-color:#9b59ee;stop-opacity:1"/><stop offset="1" style="stop-color:#2563eb;stop-opacity:1"/></linearGradient><linearGradient id="_Linear3" x1="0" y1="0" x2="1" y2="0" gradientUnits="userSpaceOnUse" gradientTransform="matrix(55.1541,94.709,-94.709,55.1541,305.854,387.332)"><stop offset="0" style="stop-color:#9b59ee;stop-opacity:0.498039"/><stop offset="1" style="stop-color:#2563eb;stop-opacity:0.498039"/></linearGradient><linearGradient id="_Linear4" x1="0" y1="0" x2="1" y2="0" gradientUnits="userSpaceOnUse" gradientTransform="matrix(172.844,297.219,-297.219,172.844,267.971,88.5808)"><stop offset="0" style="stop-color:#9b59ee;stop-opacity:1"/><stop offset="1" style="stop-color:#2563eb;stop-opacity:1"/></linearGradient></defs></svg>